<svg width="35" height="35" viewBox="0 0 35 35" fill="none" xmlns="http://www.w3.org/2000/svg">
<g clip-path="url(#clip0_99_1017)">
<path d="M17.5701 31.6769C19.1179 31.6769 20.3844 30.4104 20.3844 28.8625H14.7557C14.7557 30.4104 16.0222 31.6769 17.5701 31.6769ZM26.013 23.2339V16.1981C26.013 11.8781 23.7194 8.26167 19.6808 7.3048V6.34793C19.6808 5.17998 18.738 4.23718 17.5701 4.23718C16.4021 4.23718 15.4593 5.17998 15.4593 6.34793V7.3048C11.4348 8.26167 9.12707 11.864 9.12707 16.1981V23.2339L6.31274 26.0482V27.4554H28.8274V26.0482L26.013 23.2339ZM23.1987 24.6411H11.9414V16.1981C11.9414 12.7083 14.0662 9.86584 17.5701 9.86584C21.0739 9.86584 23.1987 12.7083 23.1987 16.1981V24.6411Z" fill="#323232"/>
</g>
<defs>
<clipPath id="clip0_99_1017">
<rect width="33.7719" height="33.7719" fill="white" transform="translate(0.684082 0.719238)"/>
</clipPath>
</defs>
</svg>
